<svg width="77" height="77" viewBox="0 0 77 77" fill="none" xmlns="http://www.w3.org/2000/svg">
<rect x="0.813965" y="0.653931" width="75.6353" height="75.6353" rx="37.7902" fill="#FFBA49"/>
<path fill-rule="evenodd" clip-rule="evenodd" d="M28.0137 28.6162H53.0715C53.3676 28.6172 53.6591 28.6896 53.9212 28.8274C54.1833 28.9653 54.4082 29.1643 54.5769 29.4077C54.7456 29.6511 54.853 29.9316 54.89 30.2254C54.927 30.5192 54.8926 30.8176 54.7895 31.0952L49.2888 45.7639C49.0192 46.4771 48.3353 46.952 47.5707 46.952H32.9021C32.1631 46.952 31.4939 46.5065 31.2097 45.8244L22.513 24.949H18.2334V21.2819H22.5111C23.2355 21.2802 23.9441 21.4937 24.547 21.8952C25.1499 22.2967 25.62 22.8682 25.8978 23.5372L28.0137 28.6162ZM42.07 39.6177H45.7371V35.9505H42.07V32.2834H38.4028V35.9505H34.7356V39.6177H38.4028V43.2849H42.07V39.6177ZM33.8188 54.2863C35.3378 54.2863 36.5692 53.0549 36.5692 51.5359C36.5692 50.0169 35.3378 48.7855 33.8188 48.7855C32.2998 48.7855 31.0684 50.0169 31.0684 51.5359C31.0684 53.0549 32.2998 54.2863 33.8188 54.2863ZM46.6538 54.2863C48.1728 54.2863 49.4042 53.0549 49.4042 51.5359C49.4042 50.0169 48.1728 48.7855 46.6538 48.7855C45.1349 48.7855 43.9035 50.0169 43.9035 51.5359C43.9035 53.0549 45.1349 54.2863 46.6538 54.2863Z" fill="white"/>
</svg>
