<svg width="99" height="69" viewBox="0 0 99 69" fill="none" xmlns="http://www.w3.org/2000/svg">
<rect x="0.717285" y="0.442139" width="98.1275" height="68.4611" rx="31.3552" fill="#EF4358"/>
<path d="M48.8819 52.361C49.4024 52.6389 50.0557 52.6372 50.5762 52.3592C64.7601 44.7397 65.7674 29.8529 65.755 25.62C65.7537 25.2798 65.6532 24.9474 65.4657 24.6635C65.2783 24.3795 65.0122 24.1564 64.6999 24.0214L50.4487 17.7084C50.2219 17.6084 49.9767 17.5569 49.7289 17.5573C49.481 17.5576 49.236 17.6096 49.0094 17.7102L34.8573 24.0232C34.5496 24.1583 34.2873 24.3789 34.1014 24.6589C33.9156 24.9389 33.8142 25.2663 33.8093 25.6023C33.7491 29.814 34.5971 44.7326 48.8819 52.361ZM43.9002 32.0712L47.9596 36.1305L55.5597 28.5305L58.0629 31.0337L47.9596 41.1371L41.397 34.5744L43.9002 32.0712Z" fill="white"/>
</svg>
