<svg width="148" height="55" viewBox="0 0 148 55" fill="none" xmlns="http://www.w3.org/2000/svg">
<rect x="0.0615234" y="0.255249" width="147.145" height="54.5362" rx="27.2681" fill="#70C217"/>
<path d="M50.1366 23.0464C49.8273 21.4997 48.5512 19.4889 45.2257 19.4889C42.6348 19.4889 40.45 21.345 40.45 23.7811C40.45 25.8499 41.8614 27.2613 44.0462 27.706L45.9604 28.0927C47.0238 28.3054 47.6231 28.9241 47.6231 29.7168C47.6231 30.6836 46.8304 31.3989 45.3997 31.3989C43.4662 31.3989 42.5188 30.1809 42.4028 28.8274L39.928 29.4848C40.1407 31.4376 41.7454 33.7771 45.3803 33.7771C48.5705 33.7771 50.33 31.6503 50.33 29.5428C50.33 27.6094 48.9959 25.9853 46.5017 25.5019L44.5876 25.1345C43.5822 24.9412 43.0989 24.3418 43.0989 23.5878C43.0989 22.6791 43.9496 21.8477 45.245 21.8477C46.9851 21.8477 47.6038 23.0271 47.7391 23.7811L50.1366 23.0464ZM69.3521 33.4871H72.2523L67.032 19.7789H63.9384L58.6795 33.4871H61.5023L62.643 30.3549H68.2114L69.3521 33.4871ZM65.4272 22.7371L67.322 27.9187H63.5324L65.4272 22.7371ZM90.5172 33.4871V30.9349H84.4075V19.7789H81.7394V33.4871H90.5172ZM108.877 33.4871V30.9736H102.96V27.8027H108.316V25.4246H102.96V22.2924H108.877V19.7789H100.292V33.4871H108.877Z" fill="white"/>
</svg>
