<svg width="214" height="473" viewBox="0 0 214 473" fill="none" xmlns="http://www.w3.org/2000/svg">
<circle cx="210.24" cy="468.636" r="3.52358" transform="rotate(-180 210.24 468.636)" fill="#70C217"/>
<circle cx="158.561" cy="468.636" r="3.52358" transform="rotate(-180 158.561 468.636)" fill="#70C217"/>
<circle cx="106.882" cy="468.636" r="3.52358" transform="rotate(-180 106.882 468.636)" fill="#70C217"/>
<circle cx="55.2025" cy="468.636" r="3.52358" transform="rotate(-180 55.2025 468.636)" fill="#70C217"/>
<circle cx="3.52329" cy="468.636" r="3.52358" transform="rotate(-180 3.52329 468.636)" fill="#70C217"/>
<circle cx="210.24" cy="416.957" r="3.52358" transform="rotate(-180 210.24 416.957)" fill="#70C217"/>
<circle cx="158.561" cy="416.957" r="3.52358" transform="rotate(-180 158.561 416.957)" fill="#70C217"/>
<circle cx="106.882" cy="416.957" r="3.52358" transform="rotate(-180 106.882 416.957)" fill="#70C217"/>
<circle cx="55.2025" cy="416.957" r="3.52358" transform="rotate(-180 55.2025 416.957)" fill="#70C217"/>
<circle cx="3.52329" cy="416.957" r="3.52358" transform="rotate(-180 3.52329 416.957)" fill="#70C217"/>
<circle cx="210.24" cy="365.278" r="3.52358" transform="rotate(-180 210.24 365.278)" fill="#70C217"/>
<circle cx="158.561" cy="365.278" r="3.52358" transform="rotate(-180 158.561 365.278)" fill="#70C217"/>
<circle cx="106.882" cy="365.278" r="3.52358" transform="rotate(-180 106.882 365.278)" fill="#70C217"/>
<circle cx="55.2025" cy="365.278" r="3.52358" transform="rotate(-180 55.2025 365.278)" fill="#70C217"/>
<circle cx="3.52329" cy="365.278" r="3.52358" transform="rotate(-180 3.52329 365.278)" fill="#70C217"/>
<circle cx="210.24" cy="313.599" r="3.52358" transform="rotate(-180 210.24 313.599)" fill="#70C217"/>
<circle cx="158.561" cy="313.599" r="3.52358" transform="rotate(-180 158.561 313.599)" fill="#70C217"/>
<circle cx="106.882" cy="313.599" r="3.52358" transform="rotate(-180 106.882 313.599)" fill="#70C217"/>
<circle cx="55.2025" cy="313.599" r="3.52358" transform="rotate(-180 55.2025 313.599)" fill="#70C217"/>
<circle cx="3.52329" cy="313.599" r="3.52358" transform="rotate(-180 3.52329 313.599)" fill="#70C217"/>
<circle cx="210.24" cy="261.92" r="3.52358" transform="rotate(-180 210.24 261.92)" fill="#70C217"/>
<circle cx="158.561" cy="261.92" r="3.52358" transform="rotate(-180 158.561 261.92)" fill="#70C217"/>
<circle cx="106.882" cy="261.92" r="3.52358" transform="rotate(-180 106.882 261.92)" fill="#70C217"/>
<circle cx="55.2025" cy="261.92" r="3.52358" transform="rotate(-180 55.2025 261.92)" fill="#70C217"/>
<circle cx="3.52329" cy="261.92" r="3.52358" transform="rotate(-180 3.52329 261.92)" fill="#70C217"/>
<circle cx="210.24" cy="210.24" r="3.52358" transform="rotate(-180 210.24 210.24)" fill="#70C217"/>
<circle cx="158.561" cy="210.24" r="3.52358" transform="rotate(-180 158.561 210.24)" fill="#70C217"/>
<circle cx="106.882" cy="210.24" r="3.52358" transform="rotate(-180 106.882 210.24)" fill="#70C217"/>
<circle cx="55.2025" cy="210.24" r="3.52358" transform="rotate(-180 55.2025 210.24)" fill="#70C217"/>
<circle cx="3.52329" cy="210.24" r="3.52358" transform="rotate(-180 3.52329 210.24)" fill="#70C217"/>
<circle cx="210.24" cy="158.561" r="3.52358" transform="rotate(-180 210.24 158.561)" fill="#70C217"/>
<circle cx="158.561" cy="158.561" r="3.52358" transform="rotate(-180 158.561 158.561)" fill="#70C217"/>
<circle cx="106.882" cy="158.561" r="3.52358" transform="rotate(-180 106.882 158.561)" fill="#70C217"/>
<circle cx="55.2025" cy="158.561" r="3.52358" transform="rotate(-180 55.2025 158.561)" fill="#70C217"/>
<circle cx="3.52329" cy="158.561" r="3.52358" transform="rotate(-180 3.52329 158.561)" fill="#70C217"/>
<circle cx="210.24" cy="106.882" r="3.52358" transform="rotate(-180 210.24 106.882)" fill="#70C217"/>
<circle cx="158.561" cy="106.882" r="3.52358" transform="rotate(-180 158.561 106.882)" fill="#70C217"/>
<circle cx="106.882" cy="106.882" r="3.52358" transform="rotate(-180 106.882 106.882)" fill="#70C217"/>
<circle cx="55.2025" cy="106.882" r="3.52358" transform="rotate(-180 55.2025 106.882)" fill="#70C217"/>
<circle cx="3.52329" cy="106.882" r="3.52358" transform="rotate(-180 3.52329 106.882)" fill="#70C217"/>
<circle cx="210.24" cy="55.2028" r="3.52358" transform="rotate(-180 210.24 55.2028)" fill="#70C217"/>
<circle cx="158.561" cy="55.2028" r="3.52358" transform="rotate(-180 158.561 55.2028)" fill="#70C217"/>
<circle cx="106.882" cy="55.2028" r="3.52358" transform="rotate(-180 106.882 55.2028)" fill="#70C217"/>
<circle cx="55.2025" cy="55.2028" r="3.52358" transform="rotate(-180 55.2025 55.2028)" fill="#70C217"/>
<circle cx="3.52329" cy="55.2028" r="3.52358" transform="rotate(-180 3.52329 55.2028)" fill="#70C217"/>
<circle cx="210.24" cy="3.52363" r="3.52358" transform="rotate(-180 210.24 3.52363)" fill="#70C217"/>
<circle cx="158.561" cy="3.52363" r="3.52358" transform="rotate(-180 158.561 3.52363)" fill="#70C217"/>
<circle cx="106.882" cy="3.52363" r="3.52358" transform="rotate(-180 106.882 3.52363)" fill="#70C217"/>
<circle cx="55.2025" cy="3.52363" r="3.52358" transform="rotate(-180 55.2025 3.52363)" fill="#70C217"/>
<circle cx="3.52329" cy="3.5236" r="3.52358" transform="rotate(-180 3.52329 3.5236)" fill="#70C217"/>
</svg>
