<svg width="1767" height="1666" viewBox="0 0 1767 1666" fill="none" xmlns="http://www.w3.org/2000/svg">
<path opacity="0.6" d="M28.8561 126.013C52.8498 93.3645 88.8403 76.1812 136.828 72.7445C224.233 65.8712 273.934 107.111 285.931 196.464C339.06 555.594 397.33 859.738 459.028 1108.9L834.357 392.353C868.634 327.057 911.48 292.69 962.895 289.254C1038.3 284.099 1084.58 332.212 1103.43 433.593C1146.27 662.13 1201.12 856.301 1266.24 1021.26C1310.8 584.806 1386.21 270.352 1492.47 76.1814C1518.18 28.0683 1555.88 4.01181 1605.58 0.575154C1645 -2.8615 1680.99 9.16678 1713.55 34.9417C1746.12 60.7165 1763.25 93.3644 1766.68 132.886C1768.4 163.816 1763.25 189.591 1749.54 215.366C1682.7 339.085 1627.86 547.003 1583.3 835.681C1540.46 1115.77 1525.03 1334 1535.31 1490.36C1538.74 1533.32 1531.89 1571.12 1514.75 1603.77C1494.18 1641.58 1463.33 1662.2 1423.92 1665.63C1379.36 1669.07 1333.08 1648.45 1288.52 1602.05C1129.14 1438.81 1002.31 1194.81 909.766 870.048C798.367 1089.99 716.103 1254.95 662.974 1364.93C561.858 1559.1 476.166 1658.76 404.186 1663.91C357.912 1667.35 318.494 1627.83 284.217 1545.35C196.812 1320.25 102.551 885.513 1.43496 241.141C-3.70654 196.464 4.86246 156.943 28.8561 126.013Z" fill="white"/>
</svg>
